{
	"asset":{
		"generator":"Khronos glTF Blender I/O v5.0.21",
		"version":"2.0"
	},
	"scene":0,
	"scenes":[
		{
			"name":"Scene",
			"nodes":[
				0
			]
		}
	],
	"nodes":[
		{
			"mesh":0,
			"name":"WhiteCat",
			"translation":[
				5,
				0,
				0
			]
		}
	],
	"materials":[
		{
			"doubleSided":true,
			"name":"model.001",
			"pbrMetallicRoughness":{
				"baseColorTexture":{
					"index":0
				},
				"metallicFactor":0,
				"roughnessFactor":0.4000000059604645
			}
		}
	],
	"meshes":[
		{
			"name":"WhiteCat.001",
			"primitives":[
				{
					"attributes":{
						"POSITION":0,
						"NORMAL":1,
						"TEXCOORD_0":2
					},
					"indices":3,
					"material":0
				}
			]
		}
	],
	"textures":[
		{
			"sampler":0,
			"source":0
		}
	],
	"images":[
		{
			"mimeType":"image/png",
			"name":"cat_texture_diffuse",
			"uri":"cat_texture_diffuse.png"
		}
	],
	"accessors":[
		{
			"bufferView":0,
			"componentType":5126,
			"count":17467,
			"max":[
				0.4640440046787262,
				0.8071680665016174,
				0.9497811794281006
			],
			"min":[
				-0.4646350145339966,
				-0.8104241490364075,
				-0.9472562074661255
			],
			"type":"VEC3"
		},
		{
			"bufferView":1,
			"componentType":5126,
			"count":17467,
			"type":"VEC3"
		},
		{
			"bufferView":2,
			"componentType":5126,
			"count":17467,
			"type":"VEC2"
		},
		{
			"bufferView":3,
			"componentType":5123,
			"count":69996,
			"type":"SCALAR"
		}
	],
	"bufferViews":[
		{
			"buffer":0,
			"byteLength":209604,
			"byteOffset":0,
			"target":34962
		},
		{
			"buffer":0,
			"byteLength":209604,
			"byteOffset":209604,
			"target":34962
		},
		{
			"buffer":0,
			"byteLength":139736,
			"byteOffset":419208,
			"target":34962
		},
		{
			"buffer":0,
			"byteLength":139992,
			"byteOffset":558944,
			"target":34963
		}
	],
	"samplers":[
		{
			"magFilter":9729,
			"minFilter":9987
		}
	],
	"buffers":[
		{
			"byteLength":698936,
			"uri":"whitecat.bin"
		}
	]
}
